<?xml version="1.0" encoding="UTF-8"?>
<svg id="Layer_2" data-name="Layer 2" xmlns="http://www.w3.org/2000/svg" viewBox="0 0 800 800">
  <g id="icon">
    <path d="m400,0C179.09,0,0,179.09,0,400s179.09,400,400,400,400-179.09,400-400S620.91,0,400,0Zm0,526.32c-69.76,0-126.32-56.55-126.32-126.32s56.55-126.32,126.32-126.32,126.32,56.55,126.32,126.32-56.55,126.32-126.32,126.32Z" fill="#d8d8da"/>
    <path d="m442.1,294.74h343.87c-28.02-102.98-96.12-189.43-186.54-241.54l-241.54,241.54h84.21Z" fill="#d4b6e6"/>
    <path d="m357.9,294.74l241.54-241.54C540.73,19.36,472.63,0,400,0c-36.44,0-71.72,4.9-105.26,14.03v343.87l63.16-63.16Z" fill="#ebafd1"/>
    <path d="m294.74,357.9V14.03C191.76,42.05,105.3,110.15,53.2,200.56l241.54,241.54v-84.21h0Z" fill="#e07188"/>
    <g>
      <polygon points="294.74 357.9 357.9 294.74 442.1 294.74 442.1 294.74 357.9 294.74 294.74 357.9" fill="#d8d8da"/>
      <polygon points="357.9 505.26 294.74 442.1 357.9 505.26 442.1 505.26 505.26 442.1 442.1 505.26 357.9 505.26" fill="#d8d8da"/>
    </g>
    <path d="m785.97,294.74h-343.87s1.5,0,1.5,0l61.66,63.16,241.54,241.54c33.84-58.71,53.2-126.81,53.2-199.44,0-36.44-4.9-71.72-14.03-105.26Z" fill="#b4d8f1"/>
    <path d="m505.26,442.1v343.87c102.98-28.02,189.43-96.12,241.54-186.53l-241.54-241.54v84.21Z" fill="#acfff4"/>
    <path d="m442.1,505.26l-241.54,241.54c58.7,33.83,126.81,53.19,199.44,53.19,36.44,0,71.72-4.9,105.26-14.03v-343.87l-63.16,63.16Z" fill="#95d5a7"/>
    <path d="m357.9,505.26H14.02c28.02,102.98,96.12,189.43,186.54,241.54l241.54-241.54h-84.21Z" fill="#f8e99b"/>
    <path d="m294.74,442.1L53.2,200.56C19.36,259.27,0,327.37,0,400c0,36.44,4.9,71.72,14.02,105.26h343.87l-63.16-63.16Z" fill="#efc27b"/>
    <polygon points="443.6 294.74 442.1 294.74 505.26 357.9 443.6 294.74" fill="#d8d8da"/>
    <path d="m785.97,294.74c-28.02-102.98-96.12-189.43-186.54-241.54l-199.44,199.44v42.1h385.97Z" fill="#b681d5"/>
    <path d="m599.44,53.19C540.73,19.36,472.63,0,400,0v252.63l199.44-199.44Z" fill="#e592bf"/>
    <path d="m400,547.37v252.63c36.44,0,71.72-4.9,105.26-14.03v-343.87l-63.16,63.16-42.1,42.11Z" fill="#80cb93"/>
    <polygon points="442.1 505.26 400 505.26 400 547.37 442.1 505.26" fill="#f6e27d"/>
  </g>
</svg>